<?xml version="1.0" encoding="UTF-8"?>
<svg id="Camada_2" data-name="Camada 2" xmlns="http://www.w3.org/2000/svg" viewBox="0 0 366.6 87.36">
  <defs>
    <style>
      .cls-1 {
        fill: #1f140f;
        stroke-width: 0px;
      }
    </style>
  </defs>
  <g id="Camada_1-2" data-name="Camada 1">
    <g>
      <path class="cls-1" d="M95.66,43.68C95.66,18.48,115.46,0,142.34,0s46.68,18.48,46.68,43.68-19.8,43.68-46.68,43.68-46.68-18.48-46.68-43.68ZM165.01,43.68c0-14.52-9.96-24-22.68-24s-22.68,9.48-22.68,24,9.96,24,22.68,24,22.68-9.48,22.68-24Z"/>
      <path class="cls-1" d="M191.31,43.68C191.31,18.48,211.11,0,237.99,0s46.68,18.48,46.68,43.68-19.8,43.68-46.68,43.68-46.68-18.48-46.68-43.68ZM260.67,43.68c0-14.52-9.96-24-22.68-24s-22.68,9.48-22.68,24,9.96,24,22.68,24,22.68-9.48,22.68-24Z"/>
      <path class="cls-1" d="M93.36,43.68C93.36,18.48,73.56,0,46.68,0S0,18.48,0,43.68s19.8,43.68,46.68,43.68h46.68v-19.68h-7.08c4.52-6.77,7.08-14.95,7.08-24ZM24,43.68c0-14.52,9.96-24,22.68-24s22.68,9.48,22.68,24-9.96,24-22.68,24-22.68-9.48-22.68-24Z"/>
      <path class="cls-1" d="M366.6,0l-34.68,87.36h-24L273.24,0h24s22.68,57.13,22.68,57.13L342.6,0h24Z"/>
    </g>
  </g>
</svg>